Coordinates
version=1
nRows=19
nColumns=36
inDegrees=yes

Units are S.I. units (second, meters, Newtons, ...)
If the header above contains a line with 'inDegrees', this indicates whether rotational values are in degrees (yes) or radians (no).

endheader
time	pelvis_tilt	pelvis_list	pelvis_rotation	pelvis_tx	pelvis_ty	pelvis_tz	hip_flexion_r	hip_adduction_r	hip_rotation_r	knee_angle_r	knee_angle_r_beta	ankle_angle_r	subtalar_angle_r	mtp_angle_r	hip_flexion_l	hip_adduction_l	hip_rotation_l	knee_angle_l	knee_angle_l_beta	ankle_angle_l	subtalar_angle_l	mtp_angle_l	lumbar_extension	lumbar_bending	lumbar_rotation	arm_flex_r	arm_add_r	arm_rot_r	elbow_flex_r	pro_sup_r	arm_flex_l	arm_add_l	arm_rot_l	elbow_flex_l	pro_sup_l
     10.88333330	     -5.62140958	     -4.89451376	     -4.37549763	      0.14879015	      0.77774560	      0.07905618	     38.86826855	     -3.69601495	     -7.11473042	      4.05993369	      0.07085921	     -2.80180917	     -1.47105174	     -7.49999987	     35.44114366	      2.22092275	      5.02964681	     58.71002860	      1.02468330	     24.44514192	     -7.48705451	     -7.49999987	    -10.47776232	      0.94096623	     -1.27681527	     75.79434141	     -3.64744080	     62.75168992	    119.95259523	     79.66956583	     80.17452422	     -1.99371122	     73.87308001	    121.26842855	     71.65273367
     10.90000000	     -5.25634731	     -4.69368804	     -4.54621792	      0.14796457	      0.77436264	      0.07851576	     39.21394991	     -3.81040231	     -6.86893534	      4.25923670	      0.07433770	     -2.47734682	     -0.95236388	     -7.49999987	     35.63134987	      2.39391977	      4.68365301	     59.77740552	      1.04331254	     25.63185182	     -6.94138858	     -7.49999987	    -11.27495911	      0.61450662	     -1.15452192	     76.01769900	     -3.58109632	     62.46292194	    119.63983782	     85.69168009	     80.43731065	     -2.01988659	     73.93282637	    121.27112940	     74.52942560
     10.91666670	     -5.24632235	     -4.51946847	     -4.36866825	      0.14521435	      0.77155189	      0.07710008	     40.02731544	     -4.13683144	     -6.40346046	      4.39660214	      0.07673518	     -2.15009544	     -0.34885036	     -7.49999987	     36.55290757	      2.78226562	      4.63222196	     60.76893807	      1.06061805	     26.51214622	     -6.65579112	     -7.49999987	    -11.81875081	      0.38955566	     -1.21022579	     76.41585796	     -3.43071011	     62.84079007	    120.22153982	     84.43669094	     80.68421345	     -1.61682557	     74.42230782	    121.86937322	     73.75063714
     10.93333330	     -5.22979956	     -4.44723306	     -4.12098222	      0.14439758	      0.76699398	      0.07713331	     40.46107762	     -4.40021806	     -5.76210518	      4.32792393	      0.07553652	     -1.70929317	      0.41160123	     -7.49999987	     37.23011855	      3.01166842	      4.65698094	     61.90460249	      1.08043914	     27.68352249	     -6.33547189	     -7.49999987	    -12.24845111	      0.35003921	     -1.21052868	     76.53320910	     -3.57080350	     62.89133192	    120.19138548	     82.77698787	     80.77784448	     -1.37410371	     74.71884063	    122.21624370	     72.63054578
     10.95000000	     -5.45395323	     -4.44701329	     -4.30913167	      0.14367946	      0.75896408	      0.07667889	     41.23075348	     -4.35187302	     -5.60149638	      4.17836030	      0.07292614	     -1.27629351	      1.29808689	     -7.49999987	     38.14335201	      3.05099674	      4.64900128	     63.12123385	      1.10167336	     28.67203082	     -6.06163760	     -7.49999987	    -12.32636991	      0.39123293	     -1.19413048	     76.20541481	     -3.58878190	     62.52818613	    120.09192713	     82.66137927	     80.52533675	     -1.28605646	     74.41174002	    122.40891735	     72.59783810
     10.96666670	     -5.65797779	     -4.56019347	     -4.16085162	      0.14067733	      0.75472237	      0.07677688	     42.17998462	     -4.35149869	     -5.04735363	      4.40776177	      0.07692996	     -0.51473000	      1.95310469	     -7.49999987	     39.42688619	      3.00401125	      4.57982388	     64.80428332	      1.13104811	     29.76604634	     -5.64443449	     -7.49999987	    -12.55988301	      0.50551046	     -1.04554307	     76.54760317	     -3.98932907	     62.54627403	    119.97700766	     80.76304164	     80.92088737	     -1.03798418	     74.80210063	    122.66710363	     71.32413447
     10.98333330	     -5.60127631	     -4.58331079	     -4.26165026	      0.14226181	      0.75084956	      0.07712831	     42.54477617	     -4.26199683	     -4.79383739	      4.38735423	      0.07657378	     -0.17623684	      2.19509191	     -7.49999987	     39.93251495	      2.90183686	      4.37368365	     65.96454059	      1.15129842	     30.22663172	     -5.72424933	     -7.49999987	    -12.86110782	      0.48340554	     -0.78936440	     76.53501262	     -3.95442700	     62.51737811	    119.95375134	     81.10853469	     80.85686942	     -0.82073962	     74.85918609	    122.78560152	     71.48838283
     11.00000000	     -5.97612426	     -4.54614321	     -4.26523756	      0.13771034	      0.74766998	      0.07605374	     43.38326507	     -4.27417733	     -4.73407080	      4.31197387	      0.07525814	      0.04118687	      2.62485822	     -7.49999987	     41.02324115	      2.91548591	      4.10721869	     67.24091355	      1.17357533	     30.48577526	     -5.84957455	     -7.49999987	    -12.85251303	      0.35460382	     -0.86848567	     76.47079295	     -3.77294727	     62.57055708	    120.35763123	     80.00541371	     80.64085487	     -0.74053953	     74.92277312	    122.83481443	     70.67757825
     11.01666670	     -5.95948579	     -4.62301786	     -4.17914504	      0.13663726	      0.74483501	      0.07565135	     43.57685538	     -4.25128863	     -5.08912774	      3.98253756	      0.06950839	      0.22507934	      3.62596418	     -7.49999987	     41.42286594	      2.88114565	      4.10896833	     68.33871600	      1.19273560	     30.62241338	     -6.22370264	     -7.49999987	    -13.25179858	      0.35560359	     -0.87104985	     76.41495546	     -3.61487275	     62.15493911	    120.30149147	     86.45585341	     80.39506562	     -0.44821492	     74.87030893	    122.66173282	     73.19815573
     11.03333330	     -6.17015959	     -4.61361357	     -4.36593413	      0.13709650	      0.74075062	      0.07561359	     44.05935943	     -4.18191549	     -4.99723686	      3.82598122	      0.06677597	     -0.07774030	      3.43685193	     -7.49999987	     42.36211485	      2.85377285	      3.96229004	     69.25581797	      1.20874205	     30.73551669	     -6.51835664	     -7.49999987	    -13.47494465	      0.28808468	     -0.77500329	     76.24075125	     -3.50028583	     62.46895122	    120.44130384	     85.48057168	     80.06173266	     -0.45928640	     75.12159398	    122.90803338	     72.58317544
     11.05000000	     -6.45425799	     -4.62277223	     -4.44719613	      0.13619668	      0.73609562	      0.07663109	     44.63117820	     -4.11461810	     -4.79600712	      3.45570065	      0.06031335	      0.14870537	      3.90233157	     -7.49999987	     44.01191014	      2.95082055	      3.87196801	     70.25053589	      1.22610315	     30.19387064	     -7.25267713	     -7.49999987	    -13.62898590	      0.21511763	     -0.65904986	     75.96344221	     -3.40095227	     62.85901701	    120.43185102	     85.74735892	     79.73251187	     -0.37508281	     75.69340306	    123.57662176	     72.70492969
     11.06666670	     -6.66824379	     -4.68836890	     -4.44190819	      0.13629338	      0.73386818	      0.07705079	     44.98053718	     -4.08398473	     -4.78018281	      3.32804917	      0.05808542	      0.03198623	      3.73507809	     -7.49999987	     44.84396271	      2.91540387	      4.07010481	     70.97641685	      1.23877217	     29.71152382	     -7.66784052	     -7.49999987	    -13.66817697	      0.16945187	     -0.65624542	     75.56558084	     -3.05290548	     63.53866985	    120.69310907	     83.96929786	     79.26576301	     -0.43377885	     76.24622877	    124.09400796	     71.59989068
     11.08333330	     -6.77536888	     -4.57034299	     -4.41342749	      0.13731208	      0.73159064	      0.07708065	     44.92653610	     -4.22652210	     -4.55366533	      2.84531607	      0.04966013	     -0.04185993	      3.52047836	     -7.49999987	     44.67734274	      3.21540130	      4.48136743	     71.12557769	      1.24137551	     30.63188747	     -7.68727724	     -7.49999987	    -13.59678495	     -0.17245475	     -0.77582375	     74.61420205	     -2.66858069	     64.01975809	    120.69536428	     83.01089427	     78.45405487	     -0.34343582	     76.49734372	    124.14771566	     71.02575462
     11.10000000	     -6.66015123	     -4.57421264	     -4.31581968	      0.13656130	      0.72887796	      0.07684138	     44.73151224	     -4.36287484	     -4.66011120	      2.60027577	      0.04538337	     -0.10578247	      3.28008727	     -7.49999987	     44.70555935	      3.41058362	      4.74829405	     71.68799218	      1.25119150	     30.92849893	     -7.21947654	     -7.49999987	    -13.77828264	     -0.27540770	     -0.66278445	     74.04103181	     -2.64572497	     64.46620146	    121.09865608	     82.15939873	     77.90774747	     -0.46083636	     76.85108832	    124.68484517	     70.53389952
     11.11666670	     -6.67764569	     -4.53960690	     -4.46018504	      0.13233939	      0.72491246	      0.07597298	     45.15885218	     -4.48028195	     -4.82167363	      2.63606904	      0.04600808	     -0.29087374	      2.99025914	     -7.49999987	     45.76690585	      3.59336156	      4.58393676	     72.70232044	      1.26889487	     30.05297061	     -7.81834707	     -7.49999987	    -14.24922262	     -0.32228642	     -0.43205973	     74.32704732	     -2.79171070	     64.36820613	    121.03083296	     81.23531529	     78.19680078	     -0.53457100	     76.72686006	    124.83796022	     69.96746600
     11.13333330	     -6.54203977	     -4.53527642	     -4.35401924	      0.13286944	      0.72442793	      0.07645084	     45.11011287	     -4.63586659	     -4.87369879	      2.33907021	      0.04082448	     -0.64979928	      2.66485832	     -7.49999987	     46.02826128	      3.79929637	      4.77441292	     73.20100825	      1.27759861	     29.69879707	     -8.36429660	     -7.49999987	    -14.65059303	     -0.34178812	     -0.36088835	     74.00485843	     -2.91825846	     64.11341923	    120.82830404	     80.14273517	     77.95138402	     -0.64427783	     76.58058651	    124.53183081	     69.29845444
     11.15000000	     -6.40248949	     -4.47623252	     -4.09830050	      0.13025381	      0.72092158	      0.07719301	     45.23833254	     -4.94175515	     -4.92941252	      2.24810121	      0.03923677	     -0.75170154	      2.89288710	     -7.49999987	     46.33578712	      4.15309285	      5.00174197	     73.64185291	      1.28529280	     30.03017235	     -8.40416003	     -7.49999987	    -15.08917949	     -0.56161896	     -0.27673683	     74.15587854	     -3.10089329	     63.30165190	    120.79906167	     87.37277253	     78.29986825	     -0.20994158	     76.63123415	    123.83338736	     72.37686344
     11.16666670	     -6.11588945	     -4.65093485	     -4.00284286	      0.13126081	      0.71963441	      0.07866509	     45.00174354	     -4.84911402	     -4.69852680	      1.98323545	      0.03461399	     -1.05399363	      2.55955546	     -7.49999987	     46.28388515	      4.20396659	      5.56976726	     74.49740618	      1.30022502	     30.98289214	     -8.20536398	     -7.49999987	    -15.43364111	     -0.54298241	      0.14707336	     74.34503388	     -3.09596801	     63.43096599	    120.78673529	     85.30363372	     78.25168322	      0.18152151	     77.01903084	    123.82921488	     71.78406152
     11.18333330	     -6.18070676	     -4.66083255	     -4.34716496	      0.13240792	      0.71728253	      0.07900617	     45.14345709	     -4.67966943	     -4.94394115	      1.93049054	      0.03369342	     -1.85160723	      2.08253955	     -7.49999987	     46.21215773	      4.26077981	      5.84397591	     75.02254579	      1.30939044	     31.88993924	     -7.90644419	     -7.49999987	    -15.41143020	     -0.66236088	      0.40399464	     74.10886459	     -2.77167970	     63.74310077	    120.94433948	     86.83857382	     77.83761259	     -0.03405127	     77.21346497	    123.91955297	     72.40414479
